<?xml version="1.0" encoding="utf-8"?>
<svg version="1.1" id="Layer_1" xmlns="http://www.w3.org/2000/svg" xmlns:xlink="http://www.w3.org/1999/xlink" viewBox="0 0 122.88 101.54" xml:space="preserve">
    <style type="text/css">.st0{fill-rule:evenodd;clip-rule:evenodd;}</style>
    <g>
        <path class="st0" d="M66.45,11.99C72.23,6,77.7,1.31,87.33,0.21c22.83-2.62,43.82,20.75,32.29,43.76 c-3.28,6.56-9.96,14.35-17.35,21.99c-8.11,8.4-17.08,16.62-23.37,22.86l-6.8,6.74l-7.34-10.34l8.57-12.08l-7.09-6.45l5.89-7.76 l-8.17-11.52l8.17-11.52l-5.89-7.76l7.09-6.45L66.45,11.99L66.45,11.99z M55.81,101.54l-10.04-9.67 C28.73,75.46,0.94,54.8,0.02,29.21C-0.62,11.28,13.53-0.21,29.8,0c13.84,0.18,20.05,6.74,28.77,15.31l3.49,4.92l-2.02,1.83 l-0.01-0.01l-0.65,0.61l-4.54,4.13l0.06,0.08l-0.05,0.04l2.64,3.47l1.65,2.24l0.03-0.03l2.39,3.15l-8,11.28l-0.07,0.06l0.01,0.02 l-0.01,0.02l0.07,0.06l8,11.28l-2.39,3.15l-0.03-0.03l-1.64,2.23l-2.64,3.48l0.05,0.04l-0.06,0.08l4.54,4.13l0.65,0.61l0.01-0.01 l2.02,1.83l-7.73,10.89l0.05,0.05l-0.05,0.05l7.73,10.89l-2.02,1.83l-0.01-0.01l-0.65,0.61L55.81,101.54L55.81,101.54z" />
    </g>
</svg>