<?xml version="1.0" encoding="iso-8859-1"?>
<svg version="1.1" id="Layer_1" xmlns="http://www.w3.org/2000/svg" xmlns:xlink="http://www.w3.org/1999/xlink"
    viewBox="0 0 512 512" style="enable-background:new 0 0 512 512;" xml:space="preserve">
    <g>
        <g>
            <path d="M275.333,47.36c-9.892,13.171-16.809,28.133-20.491,43.971L397.031,233.52c15.834-3.686,30.791-10.614,43.958-20.503
			L275.333,47.36z" />
        </g>
    </g>
    <g>
        <g>
            <path d="M245.828,130.001L39.935,351.282l38.815,38.815c-18.243,21.376-21.458,35.552-24.34,48.289
			c-2.975,13.143-5.545,24.493-30.822,49.771L47.429,512c32.17-32.17,36.258-50.232,39.866-66.168
			c2.247-9.924,4.127-18.212,15.358-31.83l34.416,34.416l221.283-205.893L245.828,130.001z M213.806,302.997l-28.451-28.451
			l23.841-23.841l28.451,28.451L213.806,302.997z" />
        </g>
    </g>
    <g>
        <g>
            <path d="M453.753,34.598c-42.089-42.09-108.255-45.773-154.569-11.069l165.649,165.649c15.299-20.354,23.58-44.993,23.578-70.908
			C488.412,86.663,476.103,56.947,453.753,34.598z" />
        </g>
    </g>
</svg>