<?xml version="1.0" encoding="UTF-8"?>
<svg xmlns="http://www.w3.org/2000/svg" xmlns:xlink="http://www.w3.org/1999/xlink" viewBox="0 0 24 24">
    <g id="surface74959459">
        <path d="M 23.179688 5.21875 C 22.910156 4.214844 22.121094 3.421875 21.117188 3.15625 C 19.296875 2.667969 12 2.667969 12 2.667969 C 12 2.667969 4.703125 2.667969 2.882812 3.15625 C 1.878906 3.421875 1.089844 4.214844 0.820312 5.21875 C 0.332031 7.035156 0.332031 12 0.332031 12 C 0.332031 12 0.332031 16.964844 0.820312 18.78125 C 1.089844 19.785156 1.878906 20.578125 2.882812 20.847656 C 4.703125 21.332031 12 21.332031 12 21.332031 C 12 21.332031 19.296875 21.332031 21.117188 20.847656 C 22.121094 20.578125 22.910156 19.785156 23.179688 18.78125 C 23.667969 16.964844 23.667969 12 23.667969 12 C 23.667969 12 23.667969 7.035156 23.179688 5.21875 Z M 9.667969 15.03125 L 9.667969 8.96875 C 9.667969 8.519531 10.152344 8.238281 10.542969 8.464844 L 15.792969 11.496094 C 16.179688 11.71875 16.179688 12.28125 15.792969 12.503906 L 10.542969 15.535156 C 10.152344 15.761719 9.667969 15.480469 9.667969 15.03125 Z M 9.667969 15.03125 " />
    </g>
</svg>