<svg version="1.0" xmlns="http://www.w3.org/2000/svg" width="24" height="24" viewBox="0 0 1024.000000 1024.000000" preserveAspectRatio="xMidYMid meet">

<g transform="translate(0.000000,1024.000000) scale(0.100000,-0.100000)" stroke="none">
<path fill="currentColor" d="M7050 8420 c0 -968 -1 -1760 -3 -1760 -1 0 -52 48 -112 107 -266 259
-552 453 -975 662 -338 167 -602 259 -947 330 -365 75 -883 75 -1299 1 -941
-170 -1809 -704 -2394 -1475 -358 -472 -613 -1047 -719 -1620 -49 -266 -55
-344 -55 -710 -1 -286 3 -375 18 -485 65 -482 172 -832 382 -1250 188 -373
403 -675 694 -974 538 -552 1234 -936 1970 -1086 305 -62 433 -74 795 -74 348
0 493 12 758 65 577 114 1149 376 1618 741 800 623 1344 1570 1463 2548 8 69
18 145 22 170 3 25 9 1013 13 2196 l6 2152 70 -41 c378 -217 839 -334 1399
-354 l189 -6 -6 239 c-4 131 -10 398 -13 592 l-7 352 -96 0 c-114 0 -335 23
-446 45 -445 91 -773 345 -953 740 -83 181 -131 370 -139 543 l-6 112 -613 0
-614 0 0 -1760z m-2270 -1855 c410 -64 763 -199 1095 -420 152 -101 260 -189
396 -325 417 -414 677 -945 760 -1550 17 -124 17 -516 0 -640 -69 -504 -257
-948 -565 -1334 -438 -551 -1092 -906 -1795 -976 -133 -13 -400 -13 -532 0
-722 72 -1395 452 -1839 1036 -218 287 -400 681 -474 1025 -78 360 -78 785 0
1139 80 364 278 781 508 1068 427 535 1040 886 1706 976 63 9 131 18 150 20
83 10 490 -3 590 -19z"></path>
</g>
</svg>