<svg version="1.0" xmlns="http://www.w3.org/2000/svg" width="24" height="24" viewBox="0 0 1024.000000 1024.000000"
    preserveAspectRatio="xMidYMid meet">

    <g transform="translate(0.000000,1024.000000) scale(0.100000,-0.100000)" stroke="none">
        <path fill="currentColor" d="M6650 8575 c0 -916 -4 -1665 -8 -1665 -5 0 -19 12 -33 26 -13 14 -73
63 -134 109 -446 334 -1053 581 -1635 665 -227 32 -606 30 -900 -6 -877 -106
-1746 -558 -2339 -1218 -478 -531 -798 -1158 -930 -1821 -96 -480 -99 -1034
-10 -1503 158 -830 605 -1608 1249 -2173 526 -462 1224 -791 1905 -898 423
-66 913 -63 1325 10 391 68 799 212 1155 406 373 204 637 404 935 709 294 300
494 589 689 996 191 396 285 733 353 1263 8 65 12 674 15 2173 2 1384 7 2082
14 2082 5 0 32 -11 59 -25 138 -70 360 -145 575 -193 241 -55 447 -80 710 -85
l130 -2 3 305 c2 168 0 495 -4 728 l-6 422 -63 0 c-166 0 -451 44 -590 92
-313 107 -526 289 -671 574 -94 185 -154 422 -154 606 l0 88 -820 0 -820 0 0
-1665z m-2020 -2485 c1050 -93 1907 -944 2009 -1994 98 -1005 -529 -1966
-1499 -2298 -165 -56 -281 -81 -475 -103 -497 -56 -1012 74 -1449 367 -526
351 -886 936 -967 1568 -17 136 -14 412 5 553 34 238 94 433 207 663 116 237
255 430 450 621 116 113 182 166 320 258 419 281 908 408 1399 365z"></path>
    </g>
</svg>