<?xml version="1.0" standalone="no"?>
<svg version="1.0" xmlns="http://www.w3.org/2000/svg" viewBox="0 0 512.000000 512.000000"
    preserveAspectRatio="xMidYMid meet">
    <g transform="translate(0.000000,512.000000) scale(0.050000,-0.050000)" stroke="none">
        <path d="M7040 8438 l0 -1753 -82 81 c-289 281 -549 460 -993 682 -299 149
-639 265 -960 326 -208 40 -385 56 -612 56 -825 0 -1580 -247 -2273 -743 -293
-210 -618 -535 -849 -850 -226 -308 -451 -754 -564 -1117 -76 -245 -129 -502
-158 -770 -17 -151 -17 -631 -1 -790 78 -759 365 -1454 850 -2060 106 -132
385 -415 517 -524 610 -505 1307 -800 2095 -887 149 -17 649 -17 800 0 500 54
917 178 1355 401 391 199 688 415 999 726 562 562 945 1304 1075 2079 52 309
51 282 51 2542 l0 2104 103 -55 c390 -209 882 -326 1376 -326 l183 0 -6 108
c-3 59 -8 271 -11 472 -3 201 -8 420 -11 488 l-6 122 -74 0 c-96 0 -346 26
-449 46 -164 32 -362 107 -493 186 -200 121 -364 314 -476 560 -83 182 -125
347 -133 526 l-6 122 -623 0 -624 0 0 -1752z m-2305 -1877 c83 -11 184 -27
225 -36 283 -60 630 -206 890 -375 391 -254 703 -608 915 -1035 187 -378 275
-748 275 -1163 0 -293 -41 -545 -135 -827 -109 -325 -265 -604 -491 -875 -377
-453 -962 -790 -1544 -889 -692 -118 -1359 27 -1940 420 -282 192 -518 430
-707 714 -190 287 -333 629 -391 940 -111 584 -38 1148 211 1653 116 233 192
354 334 528 428 523 1041 861 1723 948 164 21 458 19 635 -3z" />
    </g>
</svg>