<?xml version="1.0" standalone="no"?>
<svg version="1.0" xmlns="http://www.w3.org/2000/svg" viewBox="0 0 512.000000 512.000000"
    preserveAspectRatio="xMidYMid meet">
    <g transform="translate(0.000000,512.000000) scale(0.050000,-0.050000)" stroke="none">
        <path d="M6660 8550 l0 -1662 -57 49 c-313 267 -777 503 -1263 643 -296 85
-556 120 -885 120 -612 0 -1132 -120 -1670 -385 -399 -197 -693 -405 -1003
-710 -448 -439 -776 -972 -973 -1580 -176 -542 -220 -1220 -118 -1819 111
-656 397 -1276 828 -1796 471 -567 1109 -994 1811 -1213 629 -196 1380 -221
2051 -67 542 124 1119 410 1564 775 206 169 483 464 652 695 340 466 581 1054
667 1630 46 308 46 299 46 2390 l0 1978 103 -40 c325 -126 693 -195 1100 -205
l247 -6 0 99 c0 54 -7 407 -15 784 -8 377 -15 704 -15 728 l0 42 -72 0 c-94 0
-322 24 -423 45 -379 77 -639 277 -784 603 -68 152 -131 390 -131 495 0 25 -3
48 -7 50 -5 3 -378 8 -830 12 l-823 7 0 -1662z m-1930 -2514 c240 -30 438 -89
651 -192 418 -203 705 -457 938 -826 255 -406 368 -848 332 -1305 -15 -200
-41 -334 -97 -503 -167 -502 -515 -942 -958 -1209 -208 -126 -492 -239 -706
-280 -359 -69 -756 -44 -1085 69 -425 145 -792 407 -1057 753 -244 319 -396
685 -444 1067 -69 559 89 1117 454 1594 337 440 898 763 1442 831 144 17 392
18 530 1z" />
    </g>
</svg>