<?xml version="1.0" encoding="utf-8"?>
<svg version="1.1" id="Layer_1" xmlns="http://www.w3.org/2000/svg" xmlns:xlink="http://www.w3.org/1999/xlink" x="0px" y="0px" viewBox="0 0 512 512" style="enable-background:new 0 0 512 512;" xml:space="preserve">
	<g>
		<path d="M82.4,325.3H17.8c-1-0.2-2-0.3-3-0.3c-7,0-12.8,5-14.1,11.7H0.4v62.4h0.4c1.3,5.6,6,9.9,11.8,10.8v0.5h96.5v-0.3
		c9.9-0.1,18.3-5.7,22.7-13.9l59.6-59.6l-60.2-60.2L82.4,325.3z" />
		<path d="M509.4,146.9L403.7,71.7c-2.2-1.6-5.1-1.8-7.5-0.5c-2.4,1.2-3.9,3.8-3.9,6.5l0,31.8h-84.6v0.1c-6.1,0.3-11.5,2.7-15.8,6.5
		l-0.1-0.1L231.7,176l60.2,60.2l41.7-41.7h58.8l0,34.1c0,2.7,1.5,5.2,4,6.5c2.4,1.3,5.4,1,7.6-0.6l105.4-75.7
		c1.9-1.4,2.6-3.6,2.6-5.9v0C512,150.5,511.3,148.3,509.4,146.9z" />
		<path d="M508.9,353.2l-105.4-75.7c-2.2-1.6-5.2-1.8-7.6-0.6c-2.4,1.3-4,3.8-4,6.5l0,34.1h-58.8L131.4,115.7
		c-4.4-8.1-12.8-13.7-22.7-13.9v-0.3H12.2v0.5c-5.8,0.9-10.4,5.2-11.8,10.8H0v62.4h0.3c1.3,6.6,7.1,11.7,14.1,11.7c1,0,2-0.1,3-0.3
		h64.6l209.4,209.5l0.1-0.1c4.3,3.8,9.7,6.1,15.8,6.5v0.1h84.6l0,31.8c0,2.7,1.5,5.3,3.9,6.5c2.4,1.3,5.3,1.1,7.5-0.5l105.6-75.2
		c1.9-1.4,2.6-3.6,2.6-6v0C511.6,356.8,510.9,354.5,508.9,353.2z" />
	</g>
</svg>